<svg width="322" height="158" viewBox="0 0 322 158" fill="none" xmlns="http://www.w3.org/2000/svg">
<path d="M38.14 -5.24521e-06C43.2733 4.18 47.0867 9.79 49.58 16.83C52.0733 23.87 53.32 31.13 53.32 38.61C53.32 46.0167 52.11 53.0567 49.69 59.73C47.27 66.4033 43.42 72.16 38.14 77H15.48C10.2 72.16 6.35 66.4033 3.93 59.73C1.51 53.0567 0.3 46.0167 0.3 38.61C0.3 31.13 1.54667 23.87 4.04 16.83C6.53333 9.79 10.3467 4.18 15.48 -5.24521e-06H38.14ZM22.85 64.24H30.77C32.6033 62.1133 34.1433 58.6667 35.39 53.9C36.71 49.06 37.37 43.9633 37.37 38.61C37.37 33.2567 36.7467 28.2333 35.5 23.54C34.2533 18.7733 32.7133 15.3267 30.88 13.2H22.85C21.0167 15.3267 19.44 18.7733 18.12 23.54C16.8733 28.2333 16.25 33.2567 16.25 38.61C16.25 43.9633 16.8733 49.06 18.12 53.9C19.44 58.6667 21.0167 62.1133 22.85 64.24ZM85.7691 20.79H93.5791L96.3291 24.64C97.8691 23.2467 99.3358 22.2567 100.729 21.67C102.196 21.0833 104.359 20.79 107.219 20.79H119.429C122.656 24.8967 124.856 29.0033 126.029 33.11C127.202 37.2167 127.789 42.35 127.789 48.51V77H113.159V47.41C113.159 40.6633 112.132 35.64 110.079 32.34H99.5191C101.132 35.4933 101.939 39.7833 101.939 45.21V77H87.3091V47.41C87.3091 40.4433 86.3558 35.42 84.4491 32.34H75.9791V77H61.3491V20.79H72.7891L74.7691 24.75C76.3825 23.2833 77.8858 22.2567 79.2791 21.67C80.7458 21.0833 82.9091 20.79 85.7691 20.79ZM163.269 51.59H151.499C149.959 53.4967 149.189 55.88 149.189 58.74C149.189 61.6 149.996 63.8367 151.609 65.45H163.269V51.59ZM139.619 20.79H166.899C171.299 23.43 174.196 26.4733 175.589 29.92C176.983 33.2933 177.679 37.9133 177.679 43.78V60.28C177.679 66.3667 177.826 71.94 178.119 77H165.579L163.599 73.04C160.739 75.68 156.706 77 151.499 77H144.569C138.336 72.8933 135.219 66.99 135.219 59.29C135.219 51.5167 138.409 45.3933 144.789 40.92H155.129C157.989 40.92 160.666 41.8 163.159 43.56V38.06C163.159 35.2 161.913 33.2933 159.419 32.34H139.619V20.79ZM187.25 77V20.79H197.7L200.45 26.73C203.383 22.77 207.087 20.79 211.56 20.79H215.85V35.53H201.88V77H187.25ZM268.377 41.8H267.937H268.377L274.207 17.71L278.937 -5.24521e-06H292.687L297.637 77H283.227L281.137 34.98H280.587L272.667 66H263.647L255.727 34.98H255.177L253.087 77H238.677L243.627 -5.24521e-06H257.377L262.107 17.71L267.937 41.8H268.377ZM305.619 60.72H321.459V77H305.619V60.72ZM17.24 145.24H27.14C29.1933 142.673 30.8067 138.933 31.98 134.02C33.2267 129.107 33.85 124.23 33.85 119.39C33.85 107.877 31.6867 99.48 27.36 94.2H17.24V145.24ZM2.28 158V81H34.18C44.5933 90.24 49.8 102.78 49.8 118.62C49.8 134.387 44.9233 147.513 35.17 158H2.28ZM83.2142 113.34H74.9642C73.8642 114.66 72.9476 116.493 72.2142 118.84C71.5542 121.187 71.2242 123.46 71.2242 125.66H86.9542C87.1009 123.46 86.8076 121.187 86.0742 118.84C85.3409 116.42 84.3876 114.587 83.2142 113.34ZM98.1742 146.45V158H70.2342C65.1009 154.553 61.4709 150.3 59.3442 145.24C57.2909 140.107 56.2642 134.937 56.2642 129.73C56.2642 117.703 60.8109 108.39 69.9042 101.79H87.7242C92.6376 105.383 95.9742 109.197 97.7342 113.23C99.4942 117.263 100.374 121.333 100.374 125.44C100.374 129.547 100.044 133.067 99.3842 136H71.9942C72.2142 137.687 72.8376 139.63 73.8642 141.83C74.9642 143.957 76.1376 145.497 77.3842 146.45H98.1742ZM138.678 158H118.328C114.808 155.14 112.022 151.363 109.968 146.67C107.915 141.977 106.888 136.77 106.888 131.05V101.79H121.518V130.61C121.518 137.063 122.728 142.343 125.148 146.45H131.858C134.278 142.123 135.488 136.88 135.488 130.72V101.79H150.118V130.5C150.118 136.293 149.092 141.61 147.038 146.45C144.985 151.29 142.198 155.14 138.678 158ZM223.595 142.16L191.915 126.21V115.21L223.595 99.26L229.205 110.59L206.875 120.71L229.205 130.83L223.595 142.16ZM232.715 158L257.135 81H271.765L246.905 158H232.715ZM313.209 126.21L281.529 142.16L275.919 130.83L298.249 120.71L275.919 110.59L281.529 99.26L313.209 115.21V126.21Z" fill="black"/>
</svg>
