<svg width="90" height="102" viewBox="0 0 90 102" fill="none" xmlns="http://www.w3.org/2000/svg">
<path d="M60.7618 11.833C60.7618 11.833 59.62 12.1593 57.7441 12.7303C57.4179 11.6699 56.9285 10.4463 56.276 9.14124C54.1555 5.06281 50.9747 2.86046 47.2229 2.86046C46.9783 2.86046 46.7336 2.86046 46.4074 2.94202C46.3258 2.77889 46.1627 2.69732 46.0811 2.53418C44.4499 0.739672 42.3294 -0.0760148 39.801 0.00555386C34.9075 0.168691 30.0139 3.67614 26.099 9.95693C23.326 14.3616 21.2055 19.9083 20.6346 24.2314C15.0069 25.9444 11.0921 27.1679 11.0105 27.2495C8.15595 28.1467 8.07439 28.2283 7.74815 30.9201C7.50347 32.9593 0 90.3836 0 90.3836L61.659 101.069V11.7514C61.1696 11.7514 60.9249 11.833 60.7618 11.833ZM46.4889 16.2377C43.2265 17.2165 39.6379 18.3585 36.1309 19.4189C37.1096 15.5852 39.067 11.7514 41.3507 9.22281C42.2478 8.32555 43.4712 7.26516 44.8577 6.61261C46.2442 9.54908 46.5705 13.5459 46.4889 16.2377ZM39.801 3.34987C40.9429 3.34987 41.9216 3.59457 42.7372 4.08399C41.4322 4.73653 40.1273 5.79693 38.9039 7.02046C35.8046 10.3648 33.4394 15.5852 32.4607 20.5608C29.5245 21.4581 26.5884 22.3554 23.8969 23.171C25.6912 15.3405 32.2976 3.51301 39.801 3.34987ZM30.3401 48.2126C30.6664 53.433 44.4499 54.575 45.2655 66.8918C45.8364 76.5985 40.1273 83.2056 31.8898 83.695C21.9395 84.3475 16.475 78.4746 16.475 78.4746L18.5956 69.502C18.5956 69.502 24.0601 73.662 28.4643 73.3357C31.3188 73.1726 32.3791 70.8071 32.2976 69.1758C31.8898 62.324 20.6346 62.7318 19.9005 51.4754C19.248 42.0134 25.4466 32.4699 39.1486 31.5726C44.4499 31.2463 47.1414 32.5514 47.1414 32.5514L44.0421 44.2973C44.0421 44.2973 40.5351 42.6659 36.3755 42.9922C30.3401 43.4001 30.2586 47.2338 30.3401 48.2126ZM49.7513 15.2589C49.7513 12.8118 49.4251 9.30438 48.2832 6.36791C52.035 7.10203 53.8293 11.262 54.6449 13.7907C53.1768 14.1985 51.5456 14.6879 49.7513 15.2589Z" fill="black"/>
<path d="M63.5349 100.906L89.1445 94.5436C89.1445 94.5436 78.134 20.0714 78.0524 19.582C77.9709 19.0926 77.5631 18.7663 77.1553 18.7663C76.7475 18.7663 69.5703 18.6032 69.5703 18.6032C69.5703 18.6032 65.166 14.3616 63.5349 12.7303V100.906Z" fill="black"/>
</svg>
